<svg xmlns="http://www.w3.org/2000/svg" viewBox="0 0 64 64">
  <!-- Background circle with gradient -->
  <defs>
    <linearGradient id="bgGradient" x1="0%" y1="0%" x2="100%" y2="100%">
      <stop offset="0%" style="stop-color:#1e293b;stop-opacity:1" />
      <stop offset="100%" style="stop-color:#0f172a;stop-opacity:1" />
    </linearGradient>
    <linearGradient id="glowGradient" x1="0%" y1="0%" x2="100%" y2="100%">
      <stop offset="0%" style="stop-color:#38bdf8;stop-opacity:1" />
      <stop offset="100%" style="stop-color:#0ea5e9;stop-opacity:1" />
    </linearGradient>
  </defs>

  <!-- Dark background -->
  <circle cx="32" cy="32" r="32" fill="url(#bgGradient)"/>

  <!-- Isometric diamond tile (representing the game grid) -->
  <path d="M32 16 L46 24 L32 32 L18 24 Z" fill="#475569" opacity="0.6"/>

  <!-- Player marker/target crosshair -->
  <circle cx="32" cy="32" r="10" fill="none" stroke="url(#glowGradient)" stroke-width="2.5"/>
  <circle cx="32" cy="32" r="6" fill="none" stroke="url(#glowGradient)" stroke-width="1.5"/>

  <!-- Tactical crosshair lines -->
  <line x1="32" y1="22" x2="32" y2="26" stroke="#38bdf8" stroke-width="2" stroke-linecap="round"/>
  <line x1="32" y1="38" x2="32" y2="42" stroke="#38bdf8" stroke-width="2" stroke-linecap="round"/>
  <line x1="22" y1="32" x2="26" y2="32" stroke="#38bdf8" stroke-width="2" stroke-linecap="round"/>
  <line x1="38" y1="32" x2="42" y2="32" stroke="#38bdf8" stroke-width="2" stroke-linecap="round"/>

  <!-- Center dot -->
  <circle cx="32" cy="32" r="2" fill="#38bdf8"/>

  <!-- Subtle corner accents -->
  <path d="M8 8 L12 8 L12 12" fill="none" stroke="#0ea5e9" stroke-width="1.5" opacity="0.4"/>
  <path d="M56 8 L52 8 L52 12" fill="none" stroke="#0ea5e9" stroke-width="1.5" opacity="0.4"/>
  <path d="M8 56 L12 56 L12 52" fill="none" stroke="#0ea5e9" stroke-width="1.5" opacity="0.4"/>
  <path d="M56 56 L52 56 L52 52" fill="none" stroke="#0ea5e9" stroke-width="1.5" opacity="0.4"/>
</svg>