<svg xmlns="http://www.w3.org/2000/svg" viewBox="0 0 128 128" role="img" aria-labelledby="title desc">
  <title id="title">Seraph Warden portrait</title>
  <desc id="desc">Male warden portrait with close cut hair, visor, and angular jaw.</desc>
  <defs>
    <linearGradient id="bg" x1="0" y1="0" x2="1" y2="1">
      <stop offset="0%" stop-color="#17222f"/>
      <stop offset="100%" stop-color="#355577"/>
    </linearGradient>
    <linearGradient id="mask" x1="0" y1="0" x2="1" y2="1">
      <stop offset="0%" stop-color="#9fb7d3"/>
      <stop offset="100%" stop-color="#5f738f"/>
    </linearGradient>
  </defs>
  <rect width="128" height="128" rx="18" fill="url(#bg)"/>
  <path d="M36 58h56v31c0 12-9 21-21 21H57c-12 0-21-9-21-21z" fill="#d9b28e"/>
  <path d="M35 56c2-18 15-30 29-30 14 0 28 10 33 29-10-7-20-10-33-10-10 0-20 4-29 11z" fill="#2b3243"/>
  <rect x="40" y="60" width="48" height="20" rx="9" fill="url(#mask)"/>
  <line x1="45" y1="70" x2="83" y2="70" stroke="#3c4a61" stroke-width="2"/>
  <circle cx="54" cy="70" r="3" fill="#1f2f46"/>
  <circle cx="74" cy="70" r="3" fill="#1f2f46"/>
  <path d="M54 88c6 3 14 3 20 0" stroke="#7a4f3d" stroke-width="3" fill="none" stroke-linecap="round"/>
  <path d="M50 89h28v4H50z" fill="#5a3a2e"/>
  <circle cx="64" cy="121" r="30" fill="#1d2b38"/>
</svg>
